<?xml version="1.0" encoding="utf-8"?>
<!-- Generator: Adobe Illustrator 25.0.0, SVG Export Plug-In . SVG Version: 6.00 Build 0)  -->
<svg version="1.1" id="Camada_1" xmlns="http://www.w3.org/2000/svg" xmlns:xlink="http://www.w3.org/1999/xlink" x="0px" y="0px"
	 viewBox="0 0 500 500" style="enable-background:new 0 0 500 500;" xml:space="preserve">
<style type="text/css">
	.st0{fill:#F5F5F5;}
	.st1{fill:#2D2D2D;}
</style>
<path class="st1" d="M0,249.3C0,170.89,0,92.48,0,14.07C0,2.55,2.56,0,14.11,0c157.27,0,314.54,0,471.81,0
	C497.44,0,500,2.57,500,14.11c0,157.27,0,314.54,0,471.81c0,11.5-2.59,14.08-14.12,14.08c-157.27,0-314.54,0-471.81,0
	C2.55,500,0,497.43,0,485.88C0,407.02,0,328.16,0,249.3z M19,119.84c74.15,0,147.73,0,221.08,0c0-33.96,0-67.44,0-100.76
	c-73.97,0-147.38,0-221.08,0C19,52.77,19,86.09,19,119.84z M259.48,240.22c34.07,0,67.55,0,101.01,0c0-74,0-147.57,0-220.96
	c-33.96,0-67.44,0-101.01,0C259.48,93.06,259.48,166.32,259.48,240.22z M480.96,19.11c-33.8,0-67.28,0-100.84,0
	c0,73.97,0,147.54,0,221.02c33.92,0,67.4,0,100.84,0C480.96,166.21,480.96,92.79,480.96,19.11z M240.16,240.35
	c0-34.01,0-67.49,0-100.79c-74.05,0-147.63,0-221.09,0c0,33.85,0,67.17,0,100.79C92.85,240.35,166.27,240.35,240.16,240.35z
	 M19.17,259.67c0,74.07,0,147.65,0,221.09c33.94,0,67.42,0,100.81,0c0-73.94,0-147.36,0-221.09C86.32,259.67,53,259.67,19.17,259.67
	z M240.39,259.88c-34.13,0-67.61,0-101.02,0c0,73.94,0,147.35,0,221c33.81,0,67.29,0,101.02,0
	C240.39,407.07,240.39,333.65,240.39,259.88z M259.66,360.5c74.1,0,147.67,0,221.09,0c0-33.95,0-67.43,0-100.79
	c-73.95,0-147.37,0-221.09,0C259.66,293.37,259.66,326.7,259.66,360.5z M259.48,480.87c74.17,0,147.74,0,221.32,0
	c0-33.89,0-67.37,0-100.67c-74.05,0-147.63,0-221.32,0C259.48,413.9,259.48,447.06,259.48,480.87z"/>
</svg>
