<?xml version="1.0" encoding="UTF-8"?>
<svg xmlns="http://www.w3.org/2000/svg" version="1.1" viewBox="0 0 500 500">
  <defs>
    <style>
      .cls-1 {
        fill: #f5f5f5;
      }
    </style>
  </defs>
  <!-- Generator: Adobe Illustrator 28.6.0, SVG Export Plug-In . SVG Version: 1.2.0 Build 709)  -->
  <g>
    <g id="Camada_1">
      <path class="cls-1" d="M0,249.3V14.1C0,2.5,2.6,0,14.1,0h471.8c11.5,0,14.1,2.6,14.1,14.1v471.8c0,11.5-2.6,14.1-14.1,14.1H14.1c-11.5,0-14.1-2.6-14.1-14.1v-236.6ZM19,119.8h221.1V19.1H19v100.8ZM259.5,240.2h101V19.3h-101v221ZM481,19.1h-100.8v221h100.8V19.1ZM240.2,240.4v-100.8H19.1v100.8h221.1ZM19.2,259.7v221.1h100.8v-221.1H19.2ZM240.4,259.9h-101v221h101c0-73.8,0-147.2,0-221ZM259.7,360.5h221.1v-100.8h-221.1v100.8ZM259.5,480.9h221.3v-100.7h-221.3v100.7Z"/>
    </g>
  </g>
</svg>