<?xml version="1.0" encoding="UTF-8"?>
<svg xmlns="http://www.w3.org/2000/svg" version="1.1" viewBox="0 0 500 500">
  <defs>
    <style>
      .cls-1 {
        fill: #2d2d2d;
      }
    </style>
  </defs>
  <!-- Generator: Adobe Illustrator 28.6.0, SVG Export Plug-In . SVG Version: 1.2.0 Build 709)  -->
  <g>
    <g id="Camada_1">
      <g>
        <path class="cls-1" d="M239.3,0H7.9C3.5,0,0,3.6,0,7.9v101.2h239.3V0Z"/>
        <rect class="cls-1" x="260.5" y="260.5" width="239.3" height="109.1"/>
        <rect class="cls-1" x="260.3" y=".3" width="109.3" height="239.2"/>
        <path class="cls-1" d="M8,499.8h101.3v-239.3H.2v231.4c0,4.3,3.5,7.9,7.9,7.9Z"/>
        <path class="cls-1" d="M260.3,499.9h231.7c4.3,0,7.9-3.5,7.9-7.9v-101.1h-239.5v109Z"/>
        <path class="cls-1" d="M390.9,239.3h109.1V8c0-4.3-3.5-7.9-7.9-7.9h-101.3v239.2Z"/>
        <rect class="cls-1" x="0" y="130.5" width="239.3" height="109.1"/>
        <rect class="cls-1" x="130.3" y="260.7" width="109.3" height="239.2"/>
      </g>
    </g>
  </g>
</svg>